<?xml version="1.0" encoding="utf-8" ?><svg xmlns="http://www.w3.org/2000/svg" xmlns:xlink="http://www.w3.org/1999/xlink" width="700" height="745" viewBox="0 0 700 745"><path transform="scale(1.16703 1.24372)" d="M206.013 0L227.6 0C231.07 0.772917 234.676 0.724902 238.188 1.20588C242.946 1.85756 247.704 2.56975 252.383 3.6631C292.337 12.4639 320.72 37.2049 342.472 70.9426C360.946 99.5958 374.332 131.552 385.718 163.684C388.768 172.291 391.866 183.41 395.055 191.502C398.649 176.251 401.872 160.116 405.175 144.741L423.383 60.0445C426.407 45.9728 429.385 30.4958 432.772 16.656C454.176 16.3971 475.999 16.5502 497.425 16.5913C509.852 16.6151 525.474 16.1412 537.651 16.7843C535.511 25.2583 533.613 34.8558 531.698 43.4652L519.864 96.6354L473.732 303.687L464.397 343.11C460.766 358.426 457.262 373.674 452.919 388.814C451.658 393.209 449.752 397.918 449.109 402.443C449.017 404.236 451.297 412.767 451.864 415.074C457.682 438.742 465.444 464.132 477.744 485.2C484.974 497.584 496.972 511.215 511.375 514.512C523.303 517.243 539.077 514.843 549.59 508.217C564.24 498.984 570.04 485.703 574.174 469.672C577.121 458.242 576.426 450.004 577.827 439.295C584.528 439.096 593.335 439.009 600 439.329L600 447.82C599.135 451.472 599.186 456.674 598.843 460.541C598.24 468.203 597.37 475.841 596.235 483.442C590.417 523.769 571.8 583.366 527.032 596.664C523.772 597.632 519.961 598.037 516.627 599L502.295 599C501.335 598.604 499.385 598.138 498.337 597.979C483.147 595.672 470.062 587.062 461.933 573.698C451.946 557.277 445.972 537.597 440.642 519.017C435.4 500.878 430.733 482.578 426.647 464.144C423.891 468.256 421.558 473.803 419.159 478.27C408.405 498.299 395.895 516.226 380.402 532.948C346.79 569.228 300.88 591.108 251.958 596.924C245.416 597.702 238.576 597.717 232.224 599L202.897 599C201.703 598.599 200.069 598.363 198.808 598.283C149.721 595.166 106.077 574.565 72.7103 538.38C30.828 492.961 12.2074 434.244 4.44026 374.08C2.88675 361.864 1.76794 349.597 1.08594 337.302C0.747265 331.158 1.15312 323.067 0 317.173L0 277.771C0.881063 274.52 1.16543 263.38 1.42239 259.447C1.9585 251.485 2.71139 243.538 3.68024 235.617C8.54743 193.247 21.0898 147.313 42.594 110.457C69.758 63.9011 112.362 23.3516 164.793 7.70804C174.082 4.96864 183.562 2.92472 193.155 1.59324C197.121 1.00892 202.424 1.07601 206.013 0ZM260.893 551.48C332.26 510.289 356.856 364.869 372.057 289.892L376.17 269.567C376.48 268.027 378.248 259.802 378.052 258.701C376.851 252.602 374.731 246.266 372.843 240.295C359.44 197.903 344.01 155.995 321.948 117.251C299.848 78.4405 270.898 46.036 222.699 47.8733C202.312 48.6603 183.059 57.4602 169.125 72.3603C114.676 130.215 113.987 265.406 115.229 341.678C116.163 399.008 125.793 500.163 169.573 541.149C184.066 554.991 203.505 562.443 223.539 561.838C237.063 561.365 249.166 558.543 260.893 551.48Z"/></svg>